<?xml version="1.0" standalone="no"?><!DOCTYPE svg PUBLIC "-//W3C//DTD SVG 1.1//EN" "http://www.w3.org/Graphics/SVG/1.1/DTD/svg11.dtd"><svg t="1765960928348" class="icon" viewBox="0 0 1024 1024" version="1.1" xmlns="http://www.w3.org/2000/svg" p-id="24266" xmlns:xlink="http://www.w3.org/1999/xlink" width="200" height="200"><path d="M260.6592 158.2592m51.2 0l456.1408 0q51.2 0 51.2 51.2l0 595.7888q0 51.2-51.2 51.2l-456.1408 0q-51.2 0-51.2-51.2l0-595.7888q0-51.2 51.2-51.2Z" fill="#E1ECFF" p-id="24267"></path><path d="M628.352 102.4a51.2 51.2 0 0 1 51.2 51.2v9.3184a51.2 51.2 0 0 1-51.2 51.2h-232.704a51.2 51.2 0 0 1-51.2-51.2V153.6a51.2 51.2 0 0 1 51.2-51.2h232.704z m0 30.72h-232.704a20.48 20.48 0 0 0-20.3264 17.92l-0.1536 2.56v9.3184a20.48 20.48 0 0 0 17.92 20.3008l2.56 0.1792h232.704a20.48 20.48 0 0 0 20.3264-17.92l0.1536-2.56V153.6a20.48 20.48 0 0 0-17.92-20.3264l-2.56-0.1536z" fill="#283349" p-id="24268"></path><path d="M365.056 142.8992v30.72H253.952c-17.1264 0-31.9488 15.6928-33.6384 36.5312L220.16 214.1184v642.304c0 21.4528 13.824 38.4 30.6176 40.32l3.1744 0.1792h516.096c17.1264 0 31.9488-15.6928 33.6384-36.5312l0.1536-3.9424V214.1184c0-21.4528-13.824-38.4-30.6176-40.32l-3.1744-0.1792h-109.6448v-30.72h109.6448c34.7136 0 62.3104 29.8496 64.384 66.7392l0.128 4.48v642.304c0 37.4528-26.2656 68.736-60.3904 71.0912l-4.1216 0.128H253.952c-34.7136 0-62.3104-29.8496-64.384-66.7392l-0.128-4.4544V214.1184c0-37.4272 26.2656-68.736 60.3904-71.0912l4.1216-0.128h111.104z" fill="#283349" p-id="24269"></path><path d="M735.4112 338.3808a15.36 15.36 0 0 1 2.5088 30.5152l-2.5088 0.2048H316.5184a15.36 15.36 0 0 1-2.5088-30.5152l2.5088-0.2048h418.8928zM735.4112 508.5184a12.8 12.8 0 0 1 2.304 25.3952l-2.304 0.2048H316.5184a12.8 12.8 0 0 1-2.304-25.3952l2.304-0.2048h418.8928zM679.552 673.536a15.36 15.36 0 0 1 2.5088 30.4896l-2.5088 0.2048H316.5184a15.36 15.36 0 0 1-2.5088-30.5152l2.5088-0.2048h363.0336z" fill="#283349" p-id="24270"></path></svg>