<?xml version="1.0" standalone="no"?><!DOCTYPE svg PUBLIC "-//W3C//DTD SVG 1.1//EN" "http://www.w3.org/Graphics/SVG/1.1/DTD/svg11.dtd"><svg t="1767151082626" class="icon" viewBox="0 0 1024 1024" version="1.1" xmlns="http://www.w3.org/2000/svg" p-id="37434" xmlns:xlink="http://www.w3.org/1999/xlink" width="200" height="200"><path d="M195.3792 186.624m77.6704 0l107.776 0q77.6704 0 77.6704 77.6704l0 107.776q0 77.6704-77.6704 77.6704l-107.776 0q-77.6704 0-77.6704-77.6704l0-107.776q0-77.6704 77.6704-77.6704Z" fill="#9FA7FF" p-id="37435"></path><path d="M236.8512 228.0448m77.6704 0l66.3552 0q77.6704 0 77.6704 77.6704l0 66.3552q0 77.6704-77.6704 77.6704l-66.3552 0q-77.6704 0-77.6704-77.6704l0-66.3552q0-77.6704 77.6704-77.6704Z" fill="#8891FF" p-id="37436"></path><path d="M274.5856 265.7792m60.0576 0l63.7952 0q60.0576 0 60.0576 60.0576l0 63.7952q0 60.0576-60.0576 60.0576l-63.7952 0q-60.0576 0-60.0576-60.0576l0-63.7952q0-60.0576 60.0576-60.0576Z" fill="#6E75FF" p-id="37437"></path><path d="M634.9824 186.624m77.6704 0l107.776 0q77.6704 0 77.6704 77.6704l0 107.776q0 77.6704-77.6704 77.6704l-107.776 0q-77.6704 0-77.6704-77.6704l0-107.776q0-77.6704 77.6704-77.6704Z" fill="#9FA7FF" p-id="37438"></path><path d="M676.4032 228.0448m77.6704 0l66.3552 0q77.6704 0 77.6704 77.6704l0 66.3552q0 77.6704-77.6704 77.6704l-66.3552 0q-77.6704 0-77.6704-77.6704l0-66.3552q0-77.6704 77.6704-77.6704Z" fill="#8891FF" p-id="37439"></path><path d="M714.1376 265.7792m60.0576 0l63.7952 0q60.0576 0 60.0576 60.0576l0 63.7952q0 60.0576-60.0576 60.0576l-63.7952 0q-60.0576 0-60.0576-60.0576l0-63.7952q0-60.0576 60.0576-60.0576Z" fill="#6E75FF" p-id="37440"></path><path d="M195.3792 626.944m77.6704 0l107.776 0q77.6704 0 77.6704 77.6704l0 107.776q0 77.6704-77.6704 77.6704l-107.776 0q-77.6704 0-77.6704-77.6704l0-107.776q0-77.6704 77.6704-77.6704Z" fill="#9FA7FF" p-id="37441"></path><path d="M236.8512 668.3648m77.6704 0l66.3552 0q77.6704 0 77.6704 77.6704l0 66.3552q0 77.6704-77.6704 77.6704l-66.3552 0q-77.6704 0-77.6704-77.6704l0-66.3552q0-77.6704 77.6704-77.6704Z" fill="#8891FF" p-id="37442"></path><path d="M274.5856 706.0992m60.0576 0l63.7952 0q60.0576 0 60.0576 60.0576l0 63.7952q0 60.0576-60.0576 60.0576l-63.7952 0q-60.0576 0-60.0576-60.0576l0-63.7952q0-60.0576 60.0576-60.0576Z" fill="#6E75FF" p-id="37443"></path><path d="M634.9824 626.944m77.6704 0l107.776 0q77.6704 0 77.6704 77.6704l0 107.776q0 77.6704-77.6704 77.6704l-107.776 0q-77.6704 0-77.6704-77.6704l0-107.776q0-77.6704 77.6704-77.6704Z" fill="#9FA7FF" p-id="37444"></path><path d="M676.4032 668.3648m77.6704 0l66.3552 0q77.6704 0 77.6704 77.6704l0 66.3552q0 77.6704-77.6704 77.6704l-66.3552 0q-77.6704 0-77.6704-77.6704l0-66.3552q0-77.6704 77.6704-77.6704Z" fill="#8891FF" p-id="37445"></path><path d="M714.1376 706.0992m60.0576 0l63.7952 0q60.0576 0 60.0576 60.0576l0 63.7952q0 60.0576-60.0576 60.0576l-63.7952 0q-60.0576 0-60.0576-60.0576l0-63.7952q0-60.0576 60.0576-60.0576Z" fill="#6E75FF" p-id="37446"></path><path d="M380.8768 480.4608H210.7904A108.4928 108.4928 0 0 1 102.4 372.0704V201.984a108.4416 108.4416 0 0 1 108.3904-108.3392h170.0864a108.4416 108.4416 0 0 1 108.3392 108.3392v170.0864a108.4928 108.4928 0 0 1-108.3392 108.3904zM210.7904 155.0848A46.9504 46.9504 0 0 0 163.84 201.984v170.0864a47.0016 47.0016 0 0 0 46.8992 46.9504h170.1376a47.0016 47.0016 0 0 0 46.8992-46.9504V201.984a46.9504 46.9504 0 0 0-46.8992-46.8992zM380.8768 919.5008H210.7904A108.4416 108.4416 0 0 1 102.4 811.1616v-170.0864A108.4928 108.4928 0 0 1 210.7904 532.48h170.0864a108.4928 108.4928 0 0 1 108.3392 108.3904v170.0864a108.4416 108.4416 0 0 1-108.3392 108.544zM210.7904 593.92a47.0016 47.0016 0 0 0-46.9504 47.1552v170.0864a46.9504 46.9504 0 0 0 46.8992 46.8992h170.1376a46.9504 46.9504 0 0 0 46.8992-46.8992v-170.0864a47.0016 47.0016 0 0 0-46.8992-47.1552zM822.1696 480.4608h-170.0864a108.4928 108.4928 0 0 1-108.3392-108.3904V201.984a108.4416 108.4416 0 0 1 108.3392-108.3392h170.0864a108.4416 108.4416 0 0 1 108.3392 108.3392v170.0864a108.4928 108.4928 0 0 1-108.3392 108.3904z m-170.0864-325.376a46.9504 46.9504 0 0 0-46.8992 46.8992v170.0864a47.0016 47.0016 0 0 0 46.8992 46.9504h170.0864a47.0016 47.0016 0 0 0 46.8992-46.9504V201.984a46.9504 46.9504 0 0 0-46.8992-46.8992zM822.1696 919.5008h-170.0864a108.4416 108.4416 0 0 1-108.3392-108.3392v-170.0864A108.4928 108.4928 0 0 1 652.0832 532.48h170.0864a108.4928 108.4928 0 0 1 108.3392 108.3904v170.0864a108.4416 108.4416 0 0 1-108.3392 108.544zM652.0832 593.92a47.0016 47.0016 0 0 0-46.8992 46.9504v170.0864a46.9504 46.9504 0 0 0 46.8992 46.8992h170.0864a46.9504 46.9504 0 0 0 46.8992-46.8992v-169.8816a47.0016 47.0016 0 0 0-46.8992-46.9504z" fill="#2E3138" p-id="37447"></path></svg>