<?xml version="1.0" standalone="no"?><!DOCTYPE svg PUBLIC "-//W3C//DTD SVG 1.1//EN" "http://www.w3.org/Graphics/SVG/1.1/DTD/svg11.dtd"><svg t="1767150930199" class="icon" viewBox="0 0 1024 1024" version="1.1" xmlns="http://www.w3.org/2000/svg" p-id="28965" xmlns:xlink="http://www.w3.org/1999/xlink" width="200" height="200"><path d="M921.6 358.4h-16.5888l-292.9664-234.3936A103.4752 103.4752 0 0 0 614.4 102.4a102.4 102.4 0 0 0-204.8 0 100.1472 100.1472 0 0 0 2.4064 21.6064L118.9888 358.4H102.4a102.4 102.4 0 0 0-102.4 102.4v460.8a102.4 102.4 0 0 0 102.4 102.4h819.2a102.4 102.4 0 0 0 102.4-102.4V460.8a102.4 102.4 0 0 0-102.4-102.4zM435.968 170.3936a101.2224 101.2224 0 0 0 152.064 0L822.9888 358.4H201.0112zM321.4336 819.2h-50.688l-102.912-155.7504V819.2h-51.2v-256h51.2l102.4 153.6v-153.6h51.2z m256-204.8h-153.6v51.2h153.6v51.2h-153.6v51.2h153.6v51.2h-204.8v-256h204.8z m308.5312 204.8h-51.2l-51.2-176.5376-51.2 176.5376h-51.2l-51.2-256h51.2l27.4432 128 39.4752-128h81.5616l28.5696 129.792 27.7504-129.792h51.2z" fill="#F2780C" p-id="28966"></path></svg>